<svg xmlns="http://www.w3.org/2000/svg" width="115" height="96" viewBox="0 0 115 96" fill="none">
  <path d="M55.5883 96V93.0926L92.4517 71.7778V74.6939L55.5883 96Z" fill="#23140A"/>
  <path d="M55.5865 50.4802L92.4499 71.7775L55.5865 93.0923L18.7318 71.7862L55.5865 50.4802Z" fill="#3C2415"/>
  <path d="M55.5866 96L18.7407 74.694L18.7319 71.7866L55.5866 93.0927V96Z" fill="#3C2415"/>
  <path d="M55.5883 93.0398V82.2511L92.4517 60.9451V71.7338L55.5883 93.0398Z" fill="#70A259"/>
  <path d="M55.5865 39.6392L92.4499 60.9452L55.5865 82.2512L18.7318 60.9452L55.5865 39.6392Z" fill="#99C983"/>
  <path d="M55.5866 93.0398L18.7407 71.7338L18.7319 60.9451L55.5866 82.2511V93.0398Z" fill="#99C983"/>
  <path d="M55.5883 82.2951V79.379L92.4517 58.073V60.9891L55.5883 82.2951Z" fill="#702624"/>
  <path d="M55.5865 36.7671L92.4499 58.0731L55.5865 79.3791L18.7318 58.0731L55.5865 36.7671Z" fill="#923F3D"/>
  <path d="M55.5866 82.2951L18.7407 60.9891L18.7319 58.073L55.5866 79.379V82.2951Z" fill="#923F3D"/>
  <path d="M55.5883 79.3349V68.5374L92.4517 47.2314V58.0289L55.5883 79.3349Z" fill="#BA902A"/>
  <path d="M55.5865 25.9343L92.4499 47.2316L55.5865 68.5376L18.7318 47.2403L55.5865 25.9343Z" fill="#EDB834"/>
  <path d="M55.5866 79.3355L18.7407 58.0295L18.7319 47.2407L55.5866 68.538V79.3355Z" fill="#F2DDAF"/>
  <path d="M55.5883 68.5908V65.6834L92.4517 44.3687V47.2848L55.5883 68.5908Z" fill="#702624"/>
  <path d="M55.5865 23.0713L92.4499 44.3686L55.5865 65.6833L18.7318 44.3773L55.5865 23.0713Z" fill="#923F3D"/>
  <path d="M55.5866 68.5904L18.7407 47.2843L18.7319 44.377L55.5866 65.683V68.5904Z" fill="#923F3D"/>
  <path d="M55.5883 65.6301V54.8414L92.4517 33.5354V44.3241L55.5883 65.6301Z" fill="#B2413F"/>
  <path d="M55.5865 12.2292L92.4499 33.5353L55.5865 54.8413L18.7318 33.5353L55.5865 12.2292Z" fill="#E86663"/>
  <path d="M55.5866 65.6301L18.7407 44.3241L18.7319 33.5354L55.5866 54.8414V65.6301Z" fill="#E86663"/>
  <path d="M55.5881 54.8943V51.9782L92.4515 30.6721V33.5882L55.5881 54.8943Z" fill="#23140A"/>
  <path d="M55.5864 9.36597L92.4498 30.672L55.5864 51.978L18.7317 30.672L55.5864 9.36597Z" fill="#4D3322"/>
  <path d="M55.5865 54.8943L18.7405 33.5882L18.7318 30.6721L55.5865 51.9782V54.8943Z" fill="#3C2415"/>
  <path d="M28.0976 0L31.2518 9.70747H41.4588L33.2011 15.707L36.3553 25.4145L28.0976 19.4149L19.8399 25.4145L22.9941 15.707L14.7364 9.70747H24.9435L28.0976 0Z" fill="#C8BC9E"/>
  <path d="M96 65.561L98.1028 72.0327L104.907 72.0327L99.4024 76.0324L101.505 82.504L96 78.5043L90.4949 82.504L92.5977 76.0324L87.0926 72.0327L93.8972 72.0327L96 65.561Z" fill="#C8BC9E"/>
  <path d="M101.854 56.1951L102.642 58.6219H105.194L103.13 60.1218L103.918 62.5487L101.854 61.0488L99.7892 62.5487L100.578 60.1218L98.5133 58.6219H101.065L101.854 56.1951Z" fill="#C8BC9E"/>
  <path d="M110.049 74.9268L111.1 78.1626L114.502 78.1626L111.75 80.1624L112.801 83.3983L110.049 81.3984L107.296 83.3983L108.348 80.1624L105.595 78.1626L108.997 78.1626L110.049 74.9268Z" fill="#C8BC9E"/>
  <path d="M7.02439 21.0732L8.60146 25.927H13.705L9.57615 28.9267L11.1532 33.7805L7.02439 30.7807L2.89556 33.7805L4.47263 28.9267L0.343798 25.927H5.44732L7.02439 21.0732Z" fill="#C8BC9E"/>
</svg>