<svg width="214" height="480" viewBox="0 0 214 510" fill="none" xmlns="http://www.w3.org/2000/svg">
<path d="M89.4414 508.899V501.922L177.904 450.772V457.77L89.4414 508.899Z" fill="#3C2415" stroke="#F2EBD7" stroke-width="2" stroke-linecap="round" stroke-linejoin="round"/>
<path d="M89.4414 399.664L177.904 450.772L89.4414 501.922L1 450.793L89.4414 399.664Z" fill="#3C2415" stroke="#F2EBD7" stroke-width="2" stroke-linecap="round" stroke-linejoin="round"/>
<path d="M89.4415 508.899L1.02096 457.77L1 450.793L89.4415 501.922V508.899Z" fill="#3C2415" stroke="#F2EBD7" stroke-width="2" stroke-linecap="round" stroke-linejoin="round"/>
<path d="M89.4414 451.796V425.906L177.904 374.777V400.667L89.4414 451.796Z" fill="#99C983" stroke="#F2EBD7" stroke-width="2" stroke-linecap="round" stroke-linejoin="round"/>
<path d="M89.4414 323.648L177.904 374.777L89.4414 425.906L1 374.777L89.4414 323.648Z" fill="#99C983" stroke="#F2EBD7" stroke-width="2" stroke-linecap="round" stroke-linejoin="round"/>
<path d="M89.4415 451.796L1.02096 400.667L1 374.777L89.4415 425.906V451.796Z" fill="#99C983" stroke="#F2EBD7" stroke-width="2" stroke-linecap="round" stroke-linejoin="round"/>
<path d="M89.4414 376.011V369.013L177.904 317.884V324.882L89.4414 376.011Z" fill="#923F3D" stroke="#F2EBD7" stroke-width="2" stroke-linejoin="round"/>
<path d="M89.4414 266.755L177.904 317.884L89.4414 369.013L1 317.884L89.4414 266.755Z" fill="#923F3D" stroke="#F2EBD7" stroke-width="2" stroke-linejoin="round"/>
<path d="M89.4415 376.011L1.02096 324.882L1 317.884L89.4415 369.013V376.011Z" fill="#923F3D" stroke="#F2EBD7" stroke-width="2" stroke-linejoin="round"/>
<path d="M89.4414 318.907V292.996L177.904 241.867V267.779L89.4414 318.907Z" fill="#EDB834" stroke="#F2EBD7" stroke-width="2" stroke-linecap="round" stroke-linejoin="round"/>
<path d="M89.4414 190.76L177.904 241.867L89.4414 292.996L1 241.889L89.4414 190.76Z" fill="#EDB834" stroke="#F2EBD7" stroke-width="2" stroke-linecap="round" stroke-linejoin="round"/>
<path d="M89.4415 318.907L1.02096 267.779L1 241.888L89.4415 292.996V318.907Z" fill="#EDB834" stroke="#F2EBD7" stroke-width="2" stroke-linecap="round" stroke-linejoin="round"/>
<path d="M89.4414 243.123V236.146L177.904 184.996V191.994L89.4414 243.123Z" fill="#923F3D" stroke="#F2EBD7" stroke-width="2" stroke-linejoin="round"/>
<path d="M89.4414 133.888L177.904 184.996L89.4414 236.146L1 185.017L89.4414 133.888Z" fill="#923F3D" stroke="#F2EBD7" stroke-width="2" stroke-linejoin="round"/>
<path d="M89.4415 243.123L1.02096 191.994L1 185.017L89.4415 236.146V243.123Z" fill="#923F3D" stroke="#F2EBD7" stroke-width="2" stroke-linejoin="round"/>
<path d="M89.4414 186.019V160.129L177.904 109V134.891L89.4414 186.019Z" fill="#E86663" stroke="#F2EBD7" stroke-width="2" stroke-linejoin="round"/>
<path d="M89.4414 57.8718L177.904 109.001L89.4414 160.129L1 109.001L89.4414 57.8718Z" fill="#E86663" stroke="#F2EBD7" stroke-width="2" stroke-linejoin="round"/>
<path d="M89.4415 186.019L1.02096 134.891L1 109L89.4415 160.129V186.019Z" fill="#E86663" stroke="#F2EBD7" stroke-width="2" stroke-linejoin="round"/>
<path d="M89.4414 110.256V103.258L177.904 52.1289V59.1268L89.4414 110.256Z" fill="#3C2415" stroke="#F2EBD7" stroke-width="2" stroke-linecap="round" stroke-linejoin="round"/>
<path d="M89.4414 1L177.904 52.1288L89.4414 103.258L1 52.1288L89.4414 1Z" fill="#3C2415" stroke="#F2EBD7" stroke-width="2" stroke-linecap="round" stroke-linejoin="round"/>
<path d="M89.4415 110.256L1.02096 59.1268L1 52.1289L89.4415 103.258V110.256Z" fill="#3C2415" stroke="#F2EBD7" stroke-width="2" stroke-linecap="round" stroke-linejoin="round"/>
<circle cx="177.5" cy="130.5" r="10.5" fill="#F2EBD7" stroke="#502A27" stroke-width="2"/>
<path d="M181.336 128C181.336 129.712 180.36 130.912 178.728 132.432L176.568 134.432H181.656V136H174.136V134.72L177.48 131.552C178.936 130.176 179.496 129.216 179.496 128.08C179.496 127.008 178.84 126.24 177.656 126.24C176.616 126.24 175.944 127.04 175.784 128.432L173.96 128.128C174.264 125.92 175.592 124.64 177.656 124.64C179.864 124.64 181.336 126.08 181.336 128Z" fill="#502A27"/>
<circle cx="177.5" cy="246.5" r="10.5" fill="#F2EBD7" stroke="#502A27" stroke-width="2"/>
<path d="M182.28 247.84V249.392H180.36V252H178.52V249.392H173.32V248.064C175.224 245.792 176.952 243.376 178.52 240.8H180.36V247.84H182.28ZM175.192 247.84H178.52V243.184C177.56 244.816 176.328 246.512 175.192 247.84Z" fill="#502A27"/>
<circle cx="177.5" cy="375.5" r="10.5" fill="#F2EBD7" stroke="#502A27" stroke-width="2"/>
<path d="M177.768 381.16C175.832 381.16 174.456 380.216 173.912 378.648L175.624 377.944C175.912 378.936 176.696 379.56 177.768 379.56C179.064 379.56 179.928 378.68 179.928 377.352C179.928 376.04 179.064 375.16 177.768 375.16C176.808 375.16 176.008 375.656 175.672 376.408L174.264 376.184L174.648 369.8H180.808V371.352H176.344L176.136 374.552C176.568 374.056 177.416 373.72 178.328 373.72C180.36 373.72 181.768 375.192 181.768 377.4C181.768 379.656 180.168 381.16 177.768 381.16Z" fill="#502A27"/>
<path d="M178 186H196V318H178" stroke="#502A27" stroke-width="2" stroke-linecap="round" stroke-linejoin="round" stroke-dasharray="2 4"/>
<path d="M153 52H213V451H153" stroke="#502A27" stroke-width="2" stroke-linecap="round" stroke-linejoin="round" stroke-dasharray="2 4"/>
<circle cx="177.5" cy="185.5" r="10.5" fill="#F2EBD7" stroke="#502A27" stroke-width="2"/>
<path d="M179.592 184.984C180.968 185.368 181.752 186.44 181.752 187.72C181.752 189.752 180.008 191.16 177.752 191.16C175.8 191.16 174.408 190.232 173.864 188.664L175.544 187.816C175.8 188.904 176.6 189.56 177.752 189.56C179.048 189.56 179.912 188.808 179.912 187.688C179.912 186.584 179.048 185.864 177.752 185.864H176.712V184.424H177.672C178.824 184.424 179.592 183.768 179.592 182.792C179.592 181.864 178.888 181.24 177.832 181.24C176.792 181.24 176.072 181.816 175.832 182.744L174.12 182.056C174.6 180.536 175.944 179.64 177.832 179.64C179.864 179.64 181.432 180.936 181.432 182.68C181.432 183.848 180.552 184.776 179.592 184.984Z" fill="#502A27"/>
<circle cx="177.5" cy="51.5" r="10.5" fill="#F2EBD7" stroke="#502A27" stroke-width="2"/>
<path d="M174.28 57V55.56H177.496V48.024C176.952 48.536 175.944 49.224 175.16 49.672L174.536 48.248C175.784 47.464 176.776 46.664 177.656 45.8H179.336V55.56H181.32V57H174.28Z" fill="#502A27"/>
</svg>
