<svg width="85" height="83" viewBox="0 0 85 83" fill="none" xmlns="http://www.w3.org/2000/svg">
<g id="Group 63">
<g id="Group 60">
<g id="Group">
<path id="Vector" d="M19.6291 68.5858V67.0374L39.2618 55.6855V57.2386L19.6291 68.5858Z" fill="#23140A"/>
<path id="Vector_2" d="M19.6281 44.343L39.2608 55.6855L19.6281 67.0373L0 55.6902L19.6281 44.343Z" fill="#3C2415"/>
<path id="Vector_3" d="M19.6281 68.586L0.0046523 57.2388L0 55.6904L19.6281 67.0376V68.586Z" fill="#3C2415"/>
</g>
<g id="Group_2">
<path id="Vector_4" d="M19.6291 67.0093V61.2634L39.2618 49.9163V55.6621L19.6291 67.0093Z" fill="#70A259"/>
<path id="Vector_5" d="M19.6281 38.5691L39.2608 49.9162L19.6281 61.2634L0 49.9162L19.6281 38.5691Z" fill="#99C983"/>
<path id="Vector_6" d="M19.6281 67.0093L0.0046523 55.6621L0 49.9163L19.6281 61.2634V67.0093Z" fill="#99C983"/>
</g>
<g id="Group_3">
<path id="Vector_7" d="M19.6291 61.2867V59.7336L39.2618 48.3865V49.9395L19.6291 61.2867Z" fill="#702624"/>
<path id="Vector_8" d="M19.6281 37.0393L39.2608 48.3865L19.6281 59.7336L0 48.3865L19.6281 37.0393Z" fill="#923F3D"/>
<path id="Vector_9" d="M19.6281 61.2867L0.0046523 49.9395L0 48.3865L19.6281 59.7336V61.2867Z" fill="#923F3D"/>
</g>
<g id="Group_4">
<path id="Vector_10" d="M19.6291 59.7102V53.9597L39.2618 42.6125V48.3631L19.6291 59.7102Z" fill="#BA902A"/>
<path id="Vector_11" d="M19.6281 31.2703L39.2608 42.6127L19.6281 53.9599L0 42.6174L19.6281 31.2703Z" fill="#EDB834"/>
<path id="Vector_12" d="M19.6281 59.7104L0.0046523 48.3633L0 42.6174L19.6281 53.9599V59.7104Z" fill="#EDB834"/>
</g>
<g id="Group_5">
<path id="Vector_13" d="M19.6291 53.9881V52.4397L39.2618 41.0879V42.641L19.6291 53.9881Z" fill="#702624"/>
<path id="Vector_14" d="M19.6281 29.7454L39.2608 41.0879L19.6281 52.4397L0 41.0925L19.6281 29.7454Z" fill="#923F3D"/>
<path id="Vector_15" d="M19.6281 53.9881L0.0046523 42.6409L0 41.0925L19.6281 52.4397V53.9881Z" fill="#923F3D"/>
</g>
<g id="Group_6">
<path id="Vector_16" d="M19.6291 52.4111V46.6653L39.2618 35.3181V41.064L19.6291 52.4111Z" fill="#B2413F"/>
<path id="Vector_17" d="M19.6281 23.9714L39.2608 35.3186L19.6281 46.6657L0 35.3186L19.6281 23.9714Z" fill="#E86663"/>
<path id="Vector_18" d="M19.6281 52.4111L0.0046523 41.064L0 35.3181L19.6281 46.6653V52.4111Z" fill="#E86663"/>
</g>
<g id="Group_7">
<path id="Vector_19" d="M19.6291 46.6934V45.1404L39.2618 33.7932V35.3463L19.6291 46.6934Z" fill="#23140A"/>
<path id="Vector_20" d="M19.6281 22.4463L39.2608 33.7934L19.6281 45.1406L0 33.7934L19.6281 22.4463Z" fill="#4D3322"/>
<path id="Vector_21" d="M19.6281 46.6934L0.0046523 35.3463L0 33.7932L19.6281 45.1404V46.6934Z" fill="#3C2415"/>
</g>
</g>
<g id="Group 59">
<g id="Group_8">
<path id="Vector_22" d="M64.5217 68.5858V67.0374L84.1544 55.6855V57.2386L64.5217 68.5858Z" fill="#23140A"/>
<path id="Vector_23" d="M64.5206 44.343L84.1533 55.6855L64.5206 67.0373L44.8926 55.6902L64.5206 44.343Z" fill="#3C2415"/>
<path id="Vector_24" d="M64.5206 68.586L44.8972 57.2388L44.8926 55.6904L64.5206 67.0376V68.586Z" fill="#3C2415"/>
</g>
<g id="Group_9">
<path id="Vector_25" d="M64.5217 67.0093V61.2634L84.1544 49.9163V55.6621L64.5217 67.0093Z" fill="#70A259"/>
<path id="Vector_26" d="M64.5206 38.5691L84.1533 49.9162L64.5206 61.2634L44.8926 49.9162L64.5206 38.5691Z" fill="#99C983"/>
<path id="Vector_27" d="M64.5206 67.0093L44.8972 55.6621L44.8926 49.9163L64.5206 61.2634V67.0093Z" fill="#99C983"/>
</g>
<g id="Group_10">
<path id="Vector_28" d="M64.5217 61.2867V59.7336L84.1544 48.3865V49.9395L64.5217 61.2867Z" fill="#702624"/>
<path id="Vector_29" d="M64.5206 37.0393L84.1533 48.3865L64.5206 59.7336L44.8926 48.3865L64.5206 37.0393Z" fill="#923F3D"/>
<path id="Vector_30" d="M64.5206 61.2867L44.8972 49.9395L44.8926 48.3865L64.5206 59.7336V61.2867Z" fill="#923F3D"/>
</g>
<g id="Group_11">
<path id="Vector_31" d="M64.5217 59.7102V53.9597L84.1544 42.6125V48.3631L64.5217 59.7102Z" fill="#BA902A"/>
<path id="Vector_32" d="M64.5206 31.2703L84.1533 42.6127L64.5206 53.9599L44.8926 42.6174L64.5206 31.2703Z" fill="#EDB834"/>
<path id="Vector_33" d="M64.5206 59.7104L44.8972 48.3633L44.8926 42.6174L64.5206 53.9599V59.7104Z" fill="#EDB834"/>
</g>
<g id="Group_12">
<path id="Vector_34" d="M64.5217 53.9881V52.4397L84.1544 41.0879V42.641L64.5217 53.9881Z" fill="#702624"/>
<path id="Vector_35" d="M64.5206 29.7454L84.1533 41.0879L64.5206 52.4397L44.8926 41.0925L64.5206 29.7454Z" fill="#923F3D"/>
<path id="Vector_36" d="M64.5206 53.9881L44.8972 42.6409L44.8926 41.0925L64.5206 52.4397V53.9881Z" fill="#923F3D"/>
</g>
<g id="Group_13">
<path id="Vector_37" d="M64.5217 52.4111V46.6653L84.1544 35.3181V41.064L64.5217 52.4111Z" fill="#B2413F"/>
<path id="Vector_38" d="M64.5206 23.9714L84.1533 35.3186L64.5206 46.6657L44.8926 35.3186L64.5206 23.9714Z" fill="#E86663"/>
<path id="Vector_39" d="M64.5206 52.4111L44.8972 41.064L44.8926 35.3181L64.5206 46.6653V52.4111Z" fill="#E86663"/>
</g>
<g id="Group_14">
<path id="Vector_40" d="M64.5217 46.6934V45.1404L84.1544 33.7932V35.3463L64.5217 46.6934Z" fill="#23140A"/>
<path id="Vector_41" d="M64.5206 22.4463L84.1533 33.7934L64.5206 45.1406L44.8926 33.7934L64.5206 22.4463Z" fill="#4D3322"/>
<path id="Vector_42" d="M64.5206 46.6934L44.8972 35.3463L44.8926 33.7932L64.5206 45.1404V46.6934Z" fill="#3C2415"/>
</g>
</g>
<g id="Group 61">
<g id="Group_15">
<path id="Vector_43" d="M42.0754 82.3031V80.7547L61.7081 69.4028V70.9559L42.0754 82.3031Z" fill="#23140A"/>
<path id="Vector_44" d="M42.0743 58.0603L61.7071 69.4028L42.0743 80.7546L22.4463 69.4075L42.0743 58.0603Z" fill="#3C2415"/>
<path id="Vector_45" d="M42.0743 82.3033L22.4509 70.9561L22.4463 69.4077L42.0743 80.7549V82.3033Z" fill="#3C2415"/>
</g>
<g id="Group_16">
<path id="Vector_46" d="M42.0754 80.7263V74.9805L61.7081 63.6333V69.3792L42.0754 80.7263Z" fill="#70A259"/>
<path id="Vector_47" d="M42.0743 52.2864L61.7071 63.6335L42.0743 74.9807L22.4463 63.6335L42.0743 52.2864Z" fill="#99C983"/>
<path id="Vector_48" d="M42.0743 80.7263L22.4509 69.3792L22.4463 63.6333L42.0743 74.9805V80.7263Z" fill="#99C983"/>
</g>
<g id="Group_17">
<path id="Vector_49" d="M42.0754 75.0037V73.4507L61.7081 62.1035V63.6566L42.0754 75.0037Z" fill="#702624"/>
<path id="Vector_50" d="M42.0743 50.7566L61.7071 62.1037L42.0743 73.4509L22.4463 62.1037L42.0743 50.7566Z" fill="#923F3D"/>
<path id="Vector_51" d="M42.0743 75.0037L22.4509 63.6566L22.4463 62.1035L42.0743 73.4507V75.0037Z" fill="#923F3D"/>
</g>
<g id="Group_18">
<path id="Vector_52" d="M42.0754 73.4273V67.6767L61.7081 56.3296V62.0801L42.0754 73.4273Z" fill="#BA902A"/>
<path id="Vector_53" d="M42.0743 44.9873L61.7071 56.3298L42.0743 67.6769L22.4463 56.3344L42.0743 44.9873Z" fill="#EDB834"/>
<path id="Vector_54" d="M42.0743 73.4275L22.4509 62.0803L22.4463 56.3345L42.0743 67.677V73.4275Z" fill="#EDB834"/>
</g>
<g id="Group_19">
<path id="Vector_55" d="M42.0754 67.7054V66.157L61.7081 54.8052V56.3582L42.0754 67.7054Z" fill="#702624"/>
<path id="Vector_56" d="M42.0743 43.4626L61.7071 54.8051L42.0743 66.157L22.4463 54.8098L42.0743 43.4626Z" fill="#923F3D"/>
<path id="Vector_57" d="M42.0743 67.7051L22.4509 56.358L22.4463 54.8096L42.0743 66.1567V67.7051Z" fill="#923F3D"/>
</g>
<g id="Group_20">
<path id="Vector_58" d="M42.0754 66.1287V60.3828L61.7081 49.0356V54.7815L42.0754 66.1287Z" fill="#B2413F"/>
<path id="Vector_59" d="M42.0743 37.6885L61.7071 49.0356L42.0743 60.3828L22.4463 49.0356L42.0743 37.6885Z" fill="#E86663"/>
<path id="Vector_60" d="M42.0743 66.1287L22.4509 54.7815L22.4463 49.0356L42.0743 60.3828V66.1287Z" fill="#E86663"/>
</g>
<g id="Group_21">
<path id="Vector_61" d="M42.0754 60.4107V58.8577L61.7081 47.5105V49.0636L42.0754 60.4107Z" fill="#23140A"/>
<path id="Vector_62" d="M42.0743 36.1633L61.7071 47.5105L42.0743 58.8576L22.4463 47.5105L42.0743 36.1633Z" fill="#4D3322"/>
<path id="Vector_63" d="M42.0743 60.4107L22.4509 49.0636L22.4463 47.5105L42.0743 58.8577V60.4107Z" fill="#3C2415"/>
</g>
</g>
<g id="Group 57">
<g id="Group_22">
<path id="Vector_64" d="M42.0754 46.1395V44.5911L61.7081 33.2393V34.7923L42.0754 46.1395Z" fill="#23140A"/>
<path id="Vector_65" d="M42.0743 21.8967L61.7071 33.2392L42.0743 44.591L22.4463 33.2439L42.0743 21.8967Z" fill="#3C2415"/>
<path id="Vector_66" d="M42.0743 46.1397L22.4509 34.7925L22.4463 33.2441L42.0743 44.5913V46.1397Z" fill="#3C2415"/>
</g>
<g id="Group_23">
<path id="Vector_67" d="M42.0754 44.563V38.8171L61.7081 27.47V33.2158L42.0754 44.563Z" fill="#70A259"/>
<path id="Vector_68" d="M42.0743 16.1228L61.7071 27.47L42.0743 38.8171L22.4463 27.47L42.0743 16.1228Z" fill="#99C983"/>
<path id="Vector_69" d="M42.0743 44.563L22.4509 33.2158L22.4463 27.47L42.0743 38.8171V44.563Z" fill="#99C983"/>
</g>
<g id="Group_24">
<path id="Vector_70" d="M42.0754 38.8404V37.2873L61.7081 25.9402V27.4933L42.0754 38.8404Z" fill="#702624"/>
<path id="Vector_71" d="M42.0743 14.593L61.7071 25.9402L42.0743 37.2873L22.4463 25.9402L42.0743 14.593Z" fill="#923F3D"/>
<path id="Vector_72" d="M42.0743 38.8404L22.4509 27.4933L22.4463 25.9402L42.0743 37.2873V38.8404Z" fill="#923F3D"/>
</g>
<g id="Group_25">
<path id="Vector_73" d="M42.0754 37.2639V31.5134L61.7081 20.1663V25.9168L42.0754 37.2639Z" fill="#BA902A"/>
<path id="Vector_74" d="M42.0743 8.82373L61.7071 20.1662L42.0743 31.5134L22.4463 20.1709L42.0743 8.82373Z" fill="#EDB834"/>
<path id="Vector_75" d="M42.0743 37.2642L22.4509 25.917L22.4463 20.1711L42.0743 31.5136V37.2642Z" fill="#EDB834"/>
</g>
<g id="Group_26">
<path id="Vector_76" d="M42.0754 31.5418V29.9934L61.7081 18.6416V20.1947L42.0754 31.5418Z" fill="#702624"/>
<path id="Vector_77" d="M42.0743 7.29907L61.7071 18.6416L42.0743 29.9934L22.4463 18.6462L42.0743 7.29907Z" fill="#923F3D"/>
<path id="Vector_78" d="M42.0743 31.5418L22.4509 20.1946L22.4463 18.6462L42.0743 29.9934V31.5418Z" fill="#923F3D"/>
</g>
<g id="Group_27">
<path id="Vector_79" d="M42.0754 29.9651V24.2192L61.7081 12.8721V18.6179L42.0754 29.9651Z" fill="#B2413F"/>
<path id="Vector_80" d="M42.0743 1.5249L61.7071 12.8721L42.0743 24.2192L22.4463 12.8721L42.0743 1.5249Z" fill="#E86663"/>
<path id="Vector_81" d="M42.0743 29.9651L22.4509 18.6179L22.4463 12.8721L42.0743 24.2192V29.9651Z" fill="#E86663"/>
</g>
<g id="Group_28">
<path id="Vector_82" d="M42.0754 24.2474V22.6943L61.7081 11.3472V12.9002L42.0754 24.2474Z" fill="#23140A"/>
<path id="Vector_83" d="M42.0743 0L61.7071 11.3472L42.0743 22.6943L22.4463 11.3472L42.0743 0Z" fill="#4D3322"/>
<path id="Vector_84" d="M42.0743 24.2474L22.4509 12.9002L22.4463 11.3472L42.0743 22.6943V24.2474Z" fill="#3C2415"/>
</g>
</g>
</g>
</svg>
