<svg xmlns="http://www.w3.org/2000/svg" width="52" height="26" viewBox="0 0 52 26" fill="none">
  <path d="M12.0489 2.92705C12.3483 2.00574 13.6517 2.00574 13.9511 2.92705L15.6942 8.29179C15.828 8.70382 16.212 8.98278 16.6452 8.98278H22.2861C23.2548 8.98278 23.6576 10.2224 22.8738 10.7918L18.3103 14.1074C17.9598 14.362 17.8132 14.8134 17.947 15.2254L19.6902 20.5902C19.9895 21.5115 18.935 22.2776 18.1513 21.7082L13.5878 18.3926C13.2373 18.138 12.7627 18.138 12.4122 18.3926L7.84869 21.7082C7.06498 22.2776 6.0105 21.5115 6.30985 20.5902L8.05296 15.2254C8.18683 14.8134 8.04018 14.362 7.68969 14.1074L3.12616 10.7918C2.34245 10.2224 2.74523 8.98278 3.71395 8.98278H9.35477C9.788 8.98278 10.172 8.70382 10.3058 8.2918L12.0489 2.92705Z" fill="#502A27"/>
  <path d="M38.0489 2.92705C38.3483 2.00574 39.6517 2.00574 39.9511 2.92705L41.6942 8.29179C41.828 8.70382 42.212 8.98278 42.6452 8.98278H48.2861C49.2548 8.98278 49.6576 10.2224 48.8738 10.7918L44.3103 14.1074C43.9598 14.362 43.8132 14.8134 43.947 15.2254L45.6902 20.5902C45.9895 21.5115 44.935 22.2776 44.1513 21.7082L39.5878 18.3926C39.2373 18.138 38.7627 18.138 38.4122 18.3926L33.8487 21.7082C33.065 22.2776 32.0105 21.5115 32.3098 20.5902L34.053 15.2254C34.1868 14.8134 34.0402 14.362 33.6897 14.1074L29.1262 10.7918C28.3425 10.2224 28.7452 8.98278 29.7139 8.98278H35.3548C35.788 8.98278 36.172 8.70382 36.3058 8.2918L38.0489 2.92705Z" fill="#502A27"/>
</svg>